# xmcd CD database file generated by Grip 3.3.1
# 
# Track frame offsets:
#       150
#       34951
#       69980
#       106016
#       173056
#       196247
# 
# Disc length: 3210 seconds
# 
# Revision: 1
# Processed by: cddbd v1.5.1PL2 Copyright (c) Steve Scherf et al.
# Submitted via: Grip 3.3.1
# 
DISCID=450c8806
DTITLE=Salsa Swingoza - Swingozando "Live" at CROCODILE disk1
DYEAR=2006
DGENRE=Salsa
TTITLE0=Oye lo que te conviene
TTITLE1=No belo más
TTITLE2=Santa palabra
TTITLE3=Cocinando
TTITLE4=When sunny gets blue
TTITLE5=Amores como tu
EXTD=YEAR: 2006
EXTT0=
EXTT1=
EXTT2=
EXTT3=
EXTT4=
EXTT5=
PLAYORDER=
